<svg xmlns="http://www.w3.org/2000/svg" width="24" height="24" viewBox="0 0 24 24"><defs><style>.a{opacity:0.7;}.b{fill:none;fill-rule:evenodd;}.c{fill:#fff;}</style></defs><g class="a"><path class="b" d="M0,0H24V24H0Z"/><path class="c" d="M12,13a14.7,14.7,0,0,1,5.193,1.082,4,4,0,0,0-2.175,1.252A11.569,11.569,0,0,0,12,14.9c-2.97,0-6.1,1.46-6.1,2.1h0v1.1H14l0,.1a3.977,3.977,0,0,0,.53,1.8H4V17C4,14.34,9.33,13,12,13Zm0-9A4,4,0,1,1,8,8,4,4,0,0,1,12,4Zm0,1.9A2.1,2.1,0,1,0,14.1,8,2.1,2.1,0,0,0,12,5.9Z"/><path class="c" d="M18.613,15a.135.135,0,0,1,.144.126h0l.12.8a2.477,2.477,0,0,1,.521.294h0l.767-.3a.154.154,0,0,1,.186.066h0l.617,1.038a.147.147,0,0,1-.036.192h0l-.647.492a1.813,1.813,0,0,1,0,.588h0l.659.5a.149.149,0,0,1,.036.192h0l-.617,1.038a.146.146,0,0,1-.186.066h0l-.767-.3a2.48,2.48,0,0,1-.521.294h0l-.12.792a.145.145,0,0,1-.15.126H17.385a.145.145,0,0,1-.15-.126h0l-.12-.792a2.477,2.477,0,0,1-.521-.294h0l-.767.3a.154.154,0,0,1-.186-.066h0l-.617-1.038a.147.147,0,0,1,.036-.192h0l.653-.5A2.351,2.351,0,0,1,15.689,18a2.437,2.437,0,0,1,.018-.294h0l-.647-.492a.157.157,0,0,1-.042-.2h0l.617-1.038a.146.146,0,0,1,.186-.066h0l.767.3a2.477,2.477,0,0,1,.521-.294h0l.12-.792A.156.156,0,0,1,17.385,15h1.228ZM18,17a1,1,0,1,0,1,1A1,1,0,0,0,18,17Z"/></g></svg>