<svg xmlns="http://www.w3.org/2000/svg" width="24" height="24" viewBox="0 0 24 24"><defs><style>.a{opacity:0.7;}.b{fill:none;}.c,.d{fill:#fff;}.c{fill-rule:evenodd;}</style></defs><g class="a"><rect class="b" width="24" height="24"/><g transform="translate(3.119 3)"><path class="c" d="M6.661,0a1.11,1.11,0,0,1,1.11,1.11V6.661a1.11,1.11,0,0,1-1.11,1.11H1.11A1.11,1.11,0,0,1,0,6.661V1.11A1.11,1.11,0,0,1,1.11,0ZM5.551,2.22H2.22v3.33h3.33Z" transform="translate(0 0.119)"/><path class="c" d="M6.661,9a1.11,1.11,0,0,1,1.11,1.11v5.551a1.11,1.11,0,0,1-1.11,1.11H1.11A1.11,1.11,0,0,1,0,15.661V10.11A1.11,1.11,0,0,1,1.11,9Zm-1.11,2.22H2.22v3.33h3.33Z" transform="translate(0 1.11)"/><path class="c" d="M15.661,9a1.11,1.11,0,0,1,1.11,1.11v5.551a1.11,1.11,0,0,1-1.11,1.11H10.11A1.11,1.11,0,0,1,9,15.661V10.11A1.11,1.11,0,0,1,10.11,9Zm-1.11,2.22H11.22v3.33h3.33Z" transform="translate(0.991 1.11)"/><rect class="d" width="8" height="8" rx="1" transform="translate(9.881)"/></g></g></svg>