<svg xmlns="http://www.w3.org/2000/svg" width="24" height="24" viewBox="0 0 24 24"><defs><style>.a{opacity:0.7;}.b{fill:none;fill-rule:evenodd;}.c{fill:#fff;stroke:#fff;stroke-width:0.5px;}</style></defs><g class="a"><path class="b" d="M0,0H24V24H0Z"/><g transform="translate(2.5 2.3)"><path class="c" d="M6.117,19.051c-3.43,0-6.117-1.626-6.117-3.7V3.71A3.275,3.275,0,0,1,1.9,1.016,8.574,8.574,0,0,1,6.117,0a8.572,8.572,0,0,1,4.214,1.016,3.268,3.268,0,0,1,1.9,2.708v3a9.6,9.6,0,0,0-1.329.187,1.507,1.507,0,0,0,.265-.83v-.24A7.853,7.853,0,0,1,6.117,7.424,7.854,7.854,0,0,1,1.064,5.842v.24c0,1.435,2.314,2.648,5.054,2.648a9.054,9.054,0,0,0,1.407-.109,3.379,3.379,0,0,0-.754,1.154c-.22.014-.44.02-.654.02A7.815,7.815,0,0,1,1.064,8.2v.2c0,1.435,2.314,2.648,5.054,2.648.161,0,.324,0,.483-.013V12.1c-.168.008-.33.011-.483.011a7.816,7.816,0,0,1-5.054-1.594v.2c0,1.435,2.314,2.648,5.054,2.648.159,0,.322,0,.483-.013v1.066c-.169.008-.331.011-.483.011A7.82,7.82,0,0,1,1.064,12.83v.2c0,1.435,2.314,2.648,5.054,2.648.167,0,.335,0,.5-.014A2.779,2.779,0,0,0,6.972,16.7c-.287.023-.574.034-.854.034a7.816,7.816,0,0,1-5.054-1.593v.205c0,1.43,2.314,2.638,5.054,2.638A8.923,8.923,0,0,0,7.933,17.8a5.992,5.992,0,0,0,1.246.766A9.549,9.549,0,0,1,6.117,19.051Zm0-17.987a7.508,7.508,0,0,0-3.684.873,2.3,2.3,0,0,0-1.37,1.8c0,1.421,2.314,2.621,5.054,2.621s5.053-1.2,5.053-2.621a2.3,2.3,0,0,0-1.37-1.8A7.5,7.5,0,0,0,6.117,1.065Z"/><path class="c" d="M260.752,193.119a3.264,3.264,0,0,0-1.9-2.714,9.254,9.254,0,0,0-8.429,0,3.261,3.261,0,0,0-1.9,2.723h0v4.682c0,2.067,2.687,3.687,6.117,3.687s6.117-1.62,6.117-3.687v-4.692h0Zm-1.064,2.353c0,1.435-2.314,2.648-5.053,2.648s-5.053-1.212-5.053-2.648v-.241a8.859,8.859,0,0,0,10.105,0Zm-8.736-4.145a8.2,8.2,0,0,1,7.367,0,2.3,2.3,0,0,1,1.369,1.8c0,1.421-2.314,2.621-5.053,2.621s-5.053-1.2-5.053-2.621A2.3,2.3,0,0,1,250.952,191.328Zm3.683,9.107c-2.739,0-5.053-1.2-5.053-2.623v-.221a8.807,8.807,0,0,0,10.105,0v.221C259.689,199.233,257.375,200.434,254.636,200.434Z" transform="translate(-241.682 -182.427)"/></g></g></svg>