<svg xmlns="http://www.w3.org/2000/svg" width="24" height="24" viewBox="0 0 24 24"><defs><style>.a{opacity:0.7;}.b{fill:none;}.c,.d{fill:#fff;}.c{fill-rule:evenodd;}</style></defs><g class="a"><rect class="b" width="24" height="24"/><g transform="translate(2 3.59)"><path class="c" d="M18,0a1.887,1.887,0,0,1,2,2.02V15.474a1.87,1.87,0,0,1-2,2.02H2a1.859,1.859,0,0,1-2-2.02V2.02A1.9,1.9,0,0,1,2,0Zm0,2.187H2v13.12H18Z" transform="translate(0 0)"/><rect class="d" width="2" height="2" rx="1" transform="translate(4 4.91)"/><rect class="d" width="9" height="2" rx="1" transform="translate(7 4.91)"/><rect class="d" width="9" height="2" rx="1" transform="translate(7 7.91)"/><rect class="d" width="9" height="2" rx="1" transform="translate(7 10.91)"/><rect class="d" width="2" height="2" rx="1" transform="translate(4 7.91)"/><rect class="d" width="2" height="2" rx="1" transform="translate(4 10.91)"/></g></g></svg>